<?xml version="1.0" encoding="utf-8"?>
<svg id="4_nah_q9vf" viewBox="0 0 350 235.28535746794105" height="235.28535746794105"
     width="350"
     xmlns="http://www.w3.org/2000/svg"
     style="
     border-radius: 20px;
     font-family: Circular, Arial, sans-serif;
    color: rgb(9, 11, 23);
    width: 350px;
    height: 235.285px;
">
    <defs id="SvgjsDefs1028">
        <linearGradient id="SvgjsLinearGradient1035">
            <stop id="SvgjsStop1036" stop-color="#8f5e25" offset="0"></stop>
            <stop id="SvgjsStop1037" stop-color="#fbf4a1" offset="0.5"></stop>
            <stop id="SvgjsStop1038" stop-color="#8f5e25" offset="1"></stop>
        </linearGradient>
        <linearGradient id="SvgjsLinearGradient1039">
            <stop id="SvgjsStop1040" stop-color="#8f5e25" offset="0"></stop>
            <stop id="SvgjsStop1041" stop-color="#fbf4a1" offset="0.5"></stop>
            <stop id="SvgjsStop1042" stop-color="#8f5e25" offset="1"></stop>
        </linearGradient>
    </defs>
    <rect style="
     background-color: rgb(43, 46, 74);
    font-family: Circular, Arial, sans-serif;
    color: rgb(9, 11, 23);
    box-sizing: border-box;
    min-width: 0px;
    min-height: 0px;
    height: 100%;
    width: 100%;
    cursor: pointer;
    position: relative;
    border-radius: 4px;
    background: rgb(255, 255, 255);"
          fill="rgb(43, 46, 74)" width="350">
    </rect>

    <g style="
    transform: translate(25%, 26%) scale(0.536571);">
    <g id="SvgjsG1029" featurekey="symbolFeature-0"
       transform="matrix(1.3888888888888888,0,0,1.3888888888888888,106.05555688010321,-6.944444444444445)"
       fill="url(#SvgjsLinearGradient1035)">
        <g xmlns="http://www.w3.org/2000/svg">
            <path d="M78.4,66.5c-5.5,4.8-9.9,15.2-9.9,15.2s-6.9-11.4-12.9-15.3c-9.5-6.1-13.6-6.2-13.6-6.2V65c0,0,7.8,1.2,11.7,4.6   c8.2,7.1,14.8,18.5,14.8,18.5S74.4,75,80.1,70.5C88.1,64.3,95,65,95,65v-4.8C95,60.1,85.1,60.7,78.4,66.5z"></path>
            <path d="M42,80c-6.4-3.6-17.8-4.3-17.8-4.3s8.7-10.1,10.5-17C37.5,47.9,36.2,44,36.2,44l-4.6,1.6c0,0,1.3,7.7-0.6,12.4   c-4.1,9.9-13,19.8-13,19.8s14.6,1.3,20.7,5.1c8.6,5.4,10.2,12,10.2,12l4.6-1.6C53.5,93.4,49.7,84.4,42,80z"></path>
            <path d="M35.3,36.8c11.3-0.9,14.6-3.4,14.6-3.4l-3-3.8c0,0-6.9,3.7-12.1,3.4c-10.9-0.6-23.3-5.6-23.3-5.6s3.5,14,1.8,20.9   C10.9,58.2,5,61.8,5,61.8l3,3.8c0,0,7.5-6.5,9.1-15.1c1.3-7.1-1.7-18-1.7-18S28,37.4,35.3,36.8z"></path>
            <path d="M37.4,17.8c7.3-1.1,16.7-7.4,16.7-7.4s-0.6,13.2,2.4,19.8c4.6,10.2,8,12.5,8,12.5l2.7-4c0,0-5.9-5.2-7.3-10.2   C56.9,18.2,57.7,5,57.7,5s-12.3,7.8-19.5,8.5c-10.2,1-15.6-3.3-15.6-3.3l-2.7,4.1C19.9,14.2,28.6,19.1,37.4,17.8z"></path>
            <path d="M65,60.5c0,0,3.1-7.2,7.4-10.1c9-6.1,21.9-9.7,21.9-9.7s-11.5-8.9-14.5-15.4c-4.2-9.1-1.9-15.6-1.9-15.6l-4.8-1.2   c0,0-1.9,9.6,2.2,17.4c3.4,6.4,12.5,13.2,12.5,13.2S75,42.9,69.6,47.8c-8.3,7.6-9.4,11.5-9.4,11.5L65,60.5z"></path>
        </g>
    </g>
    <g id="SvgjsG1030" featurekey="nameFeature-0"
       transform="matrix(2.002001862213646,0,0,2.002001862213646,-2.402401852804824,121.0570160989487)"
       fill="#ffffff">
        <path d="M5.2 40.96 l2.08 0 l0 3.64 l-6.08 0 l0 -16.32 l0 -16.32 l5.92 0 l0.16 0 l0 3.64 l-1.32 0 l-0.84 0 c-0.28 0 -0.28 0 -0.28 0.36 l0 4.36 l0 3.2 l-0.04 2.2 l0.24 0 l1.4 0 l0.24 0 l0.6 0 l0 3.64 l-0.52 0 l-0.08 0 l-1.84 0 l0 2 l0 4.2 l0 1.48 l0 3.48 l0 0.36 c0 0.04 0.04 0.08 0.08 0.08 l0.16 0 l0.12 0 z M20.925 38.36 l1.8 6.24 l-3.6 0 l-3.12 -10.88 l0 0.04 l-0.52 -1.68 l0 1.24 l0 2.24 l0 1.48 l0 1.32 l0 6.24 l-3.6 0 l0 -16.32 l0 -8.56 l0 -4.68 l0 -3.08 l5.92 0 s4.8 -0.2 4.88 7.6 c0 0.08 0 0.2 0.04 0.28 l0 0.32 l-0.08 1.64 c-0.04 0.12 -0.04 0.28 -0.04 0.4 c0 0 -0.16 1.8 -0.68 3.08 l-0.08 0.16 c-1.16 2.52 -3.08 2.92 -3.76 3 l0.2 0.76 l0.92 3.2 l0.28 0.92 c0.24 0.76 0.44 1.48 0.64 2.24 l0.44 1.48 z M15.485 20.32 l0 3.2 l0 0.92 c0 0.4 0 0.4 0.32 0.4 l1.4 0 c0.2 0 0.4 -0.04 0.56 -0.08 c0.32 -0.12 0.56 -0.32 0.76 -0.6 c0.12 -0.2 0.24 -0.44 0.28 -0.68 l0.04 0 c0 -0.12 0.04 -0.2 0.04 -0.32 c0.08 -0.28 0.12 -0.6 0.16 -0.92 c0.04 -0.48 0.04 -0.96 0.04 -1.44 l0 -1.24 c0 -0.48 0 -0.96 -0.04 -1.48 c-0.04 -0.4 -0.12 -0.76 -0.24 -1.16 c-0.04 -0.24 -0.16 -0.44 -0.28 -0.64 c-0.2 -0.32 -0.44 -0.48 -0.76 -0.6 c-0.16 -0.08 -0.36 -0.08 -0.56 -0.08 l-1.4 0 c-0.32 0 -0.32 0 -0.32 0.36 l0 1.28 l0 2.88 l0 0.08 l0 0.12 z M38.09 21.8 l0 12.88 l0 2.92 c0 0.52 -0.04 1.04 -0.08 1.56 c-0.16 1.6 -1.04 5.44 -5.32 5.44 c-4.6 0 -5.24 -4.64 -5.36 -5.96 l0 -1.08 l0 -0.96 l0 -17.32 l0 -1.16 c0 -0.24 0.04 -0.48 0.04 -0.72 c0.12 -0.92 0.8 -5.44 5.48 -5.44 c4.16 0 5 3.96 5.16 5.56 c0.04 0.48 0.08 1 0.08 1.48 l0 2.8 z M34.61 38.84 c0.04 -0.4 0.04 -0.84 0.04 -1.24 l0 -3.96 l0 -11.88 l0 -2.6 c0 -0.44 0 -0.88 -0.04 -1.32 c-0.04 -0.36 -0.12 -0.68 -0.2 -1.04 c-0.08 -0.2 -0.2 -0.4 -0.32 -0.6 c-0.24 -0.36 -0.56 -0.6 -1 -0.68 c-0.2 -0.04 -0.4 -0.04 -0.6 0 c-0.44 0.08 -0.8 0.32 -1.04 0.76 c-0.2 0.28 -0.28 0.6 -0.36 0.96 c-0.08 0.4 -0.16 0.76 -0.16 1.2 l0 0.56 l0 18.64 c0 0.44 0 0.88 0.08 1.32 c0.04 0.28 0.08 0.56 0.2 0.84 l0.16 0.4 c0.28 0.52 0.72 0.8 1.28 0.84 c0.2 0.04 0.4 0 0.6 -0.04 c0.36 -0.08 0.64 -0.32 0.84 -0.64 c0.16 -0.16 0.24 -0.36 0.32 -0.56 c0.08 -0.32 0.16 -0.64 0.2 -0.96 z M55.58 40.96 l2.08 0 l0 3.64 l-6.04 0 l0 -16.32 l0 -16.32 l3.6 0 l0 3.92 l0 0.08 l0 4.36 l0 0.36 l0 2.84 l0 2.2 l0 8 l0 1.84 l0 1.48 l0 3.48 c0 0.12 0.04 0.24 0.04 0.36 c0 0.04 0.04 0.08 0.04 0.08 l0.2 0 l0.08 0 z M65.825 25.72 l0.04 6.68 l0 0.92 l0 2.24 l0 1.48 l0 1.32 l0 6.24 l-3.6 0 l0 -16.32 l0 -16.32 l3.56 0 l0 13.76 z M79.31 37.04 l0.64 1.32 l3 6.24 l-3.6 0 l-5.24 -10.88 l0 1.84 l0 1.48 l0 1.32 l0 6.24 l-3.64 0 l0 -16.32 l0 -16.32 l3.6 0 l0 10.92 l5.28 -10.92 l3.6 0 l-3 6.24 l-0.64 1.32 l-0.72 1.52 l-1.08 2.2 l-0.44 0.96 l-2 4.08 l2 4.12 l0.44 0.92 l1.08 2.24 z M91.55499999999999 40.96 l2.08 0 l0 3.64 l-6.08 0 l0 -16.32 l0 -16.32 l5.92 0 l0.16 0 l0 3.64 l-1.32 0 l-0.84 0 c-0.28 0 -0.28 0 -0.28 0.36 l0 4.36 l0 3.2 l-0.04 2.2 l0.24 0 l1.4 0 l0.24 0 l0.6 0 l0 3.64 l-0.52 0 l-0.08 0 l-1.84 0 l0 2 l0 4.2 l0 1.48 l0 3.48 l0 0.36 c0 0.04 0.04 0.08 0.08 0.08 l0.16 0 l0.12 0 z M116.76499999999999 15.600000000000001 l-3 0 l0 10.12 l0.04 6.68 l0 0.92 l0 2.24 l0 1.48 l0 1.32 l0 6.24 l-3.64 0 l0 -16.32 l0 -12.68 l-3 0 l0 -3.64 l3 0 l3.28 0 l0.32 0 l3 0 l0 3.64 z M130.41 38.36 l1.8 6.24 l-3.6 0 l-3.12 -10.88 l0 0.04 l-0.52 -1.68 l0 1.24 l0 2.24 l0 1.48 l0 1.32 l0 6.24 l-3.6 0 l0 -16.32 l0 -8.56 l0 -4.68 l0 -3.08 l5.92 0 s4.8 -0.2 4.88 7.6 c0 0.08 0 0.2 0.04 0.28 l0 0.32 l-0.08 1.64 c-0.04 0.12 -0.04 0.28 -0.04 0.4 c0 0 -0.16 1.8 -0.68 3.08 l-0.08 0.16 c-1.16 2.52 -3.08 2.92 -3.76 3 l0.2 0.76 l0.92 3.2 l0.28 0.92 c0.24 0.76 0.44 1.48 0.64 2.24 l0.44 1.48 z M124.96999999999998 20.32 l0 3.2 l0 0.92 c0 0.4 0 0.4 0.32 0.4 l1.4 0 c0.2 0 0.4 -0.04 0.56 -0.08 c0.32 -0.12 0.56 -0.32 0.76 -0.6 c0.12 -0.2 0.24 -0.44 0.28 -0.68 l0.04 0 c0 -0.12 0.04 -0.2 0.04 -0.32 c0.08 -0.28 0.12 -0.6 0.16 -0.92 c0.04 -0.48 0.04 -0.96 0.04 -1.44 l0 -1.24 c0 -0.48 0 -0.96 -0.04 -1.48 c-0.04 -0.4 -0.12 -0.76 -0.24 -1.16 c-0.04 -0.24 -0.16 -0.44 -0.28 -0.64 c-0.2 -0.32 -0.44 -0.48 -0.76 -0.6 c-0.16 -0.08 -0.36 -0.08 -0.56 -0.08 l-1.4 0 c-0.32 0 -0.32 0 -0.32 0.36 l0 1.28 l0 2.88 l0 0.08 l0 0.12 z M147.575 32.96 l0 0.08 l0 0.92 l0 0.12 l0 3.52 c0 0.52 -0.04 1.04 -0.08 1.56 c-0.16 1.6 -1.04 5.44 -5.32 5.44 c-4.6 0 -5.24 -4.64 -5.36 -5.96 l0 -1.08 l0 -0.96 l0 -10.8 l0 -13.84 l1.52 0 l1.88 0 l0.2 0 l0 12.68 l0 0.88 l0 0.64 l0 11.48 c0 0.44 0 0.88 0.08 1.32 c0.04 0.28 0.08 0.56 0.2 0.84 l0.16 0.4 c0.28 0.52 0.72 0.8 1.28 0.84 c0.2 0.04 0.4 0 0.6 -0.04 c0.36 -0.08 0.64 -0.32 0.84 -0.64 c0.16 -0.16 0.24 -0.36 0.32 -0.56 c0.08 -0.32 0.16 -0.64 0.2 -0.96 c0.04 -0.4 0.04 -0.84 0.04 -1.24 l0 -2.04 l0 -23.6 l2.44 0 l0.12 0 l0.88 0 l0 21 z M161.78 15.600000000000001 l-3 0 l0 10.12 l0.04 6.68 l0 0.92 l0 2.24 l0 1.48 l0 1.32 l0 6.24 l-3.64 0 l0 -16.32 l0 -12.68 l-3 0 l0 -3.64 l3 0 l3.28 0 l0.32 0 l3 0 l0 3.64 z M176.025 33.32 l0 2.24 l0 1.48 l0 1.32 l0 6.24 l-3.64 0 l0 -15.24 l-0.44 0 l-0.08 0 l-1.84 0 l0 2 l0 1.96 l0 2.24 l0 1.48 l0 1.32 l0 6.24 l-3.64 0 l0 -16.32 l0 -16.32 l3.6 0 l0 13.76 l0.24 0 l1.4 0 l0.24 0 l0.52 0 l0 -13.76 l3.6 0 l0 9.64 l0 4.12 l0 7.04 l0.04 0 l0 0.56 z"></path>
    </g>
    <g id="SvgjsG1031" featurekey="sloganFeature-0"
       transform="matrix(0.2794619879136491,0,0,0.2794619879136491,34.86169863800987,228.4944312415941)"
       fill="url(#SvgjsLinearGradient1039)">
        <path d="M0.7 20.04 c-0.2 0.02 -0.28 -0.68 -0.12 -0.72 c1.16 -0.3 2.06 -0.48 2.06 -1.96 l0 -8.88 c0 -1.28 -0.82 -1.62 -1.68 -1.84 c-0.16 -0.04 -0.06 -0.7 0.1 -0.68 c1.46 0.16 3.98 0.12 5.2 0.12 c1.82 0 3.14 -0.08 4.78 -0.12 c0.48 0 0.48 0.32 0.38 0.78 l-0.48 1.9 c-0.06 0.28 -0.56 0.28 -0.64 0 c-0.3 -0.98 -0.9 -1.54 -3.4 -1.54 c-1.4 0 -1.86 0.36 -1.86 1.4 l0 3.26 c0 0.52 0.26 0.62 0.66 0.62 l0.44 0 c1.62 0 3.02 -0.16 3.84 -0.9 c0.2 -0.18 0.64 -0.14 0.46 0.26 l-1.14 2.52 c-0.16 0.36 -0.46 0.32 -0.68 0.02 c-0.46 -0.64 -1.48 -0.9 -2.64 -0.9 l-0.28 0 c-0.4 0 -0.66 0.1 -0.66 0.62 l0 3.36 c0 1.14 0.48 1.56 2.14 1.56 c3.02 0 4.22 -1.38 4.7 -2.14 c0.14 -0.22 0.68 -0.12 0.68 0.22 c0 1.02 -0.86 3.04 -2.12 3.04 c-1.12 -0.06 -2.22 -0.12 -3.9 -0.12 c-1.84 0 -4.02 -0.06 -5.84 0.12 z M28.72 19.32 c0.26 0.02 0.18 0.68 -0.04 0.68 l-5.76 0 c-0.24 0 -0.32 -0.66 -0.04 -0.68 c1.26 -0.1 1.08 -0.8 0.14 -2.12 l-2.12 -2.96 l-2.34 2.96 c-1.12 1.4 -0.86 2.02 0.28 2.12 c0.22 0.02 0.2 0.68 -0.06 0.68 l-4.6 0 c-0.26 0 -0.32 -0.66 -0.06 -0.68 c0.8 -0.06 1.94 -0.8 2.98 -2.12 l3.12 -3.92 l-3.18 -4.46 c-1.08 -1.5 -2.08 -2.08 -2.88 -2.14 c-0.28 -0.02 -0.22 -0.68 0.06 -0.68 l5.74 0 c0.24 0 0.3 0.66 0.06 0.68 c-1.3 0.12 -1.12 0.78 -0.16 2.12 l1.84 2.6 l2.06 -2.6 c1.08 -1.36 0.88 -2.04 -0.24 -2.12 c-0.28 -0.02 -0.2 -0.68 0.04 -0.68 l4.6 0 c0.24 0 0.3 0.66 0.04 0.68 c-0.78 0.06 -1.94 0.8 -2.98 2.12 l-2.82 3.56 l3.42 4.82 c1.06 1.48 2.1 2.08 2.9 2.14 z M42.08 10.24 c0 3.56 -3.34 5.06 -7.76 4.4 l0 2.88 c0 1.4 0.96 1.64 2.24 1.8 c0.14 0.02 0.04 0.68 -0.12 0.68 l-6.06 0 c-0.16 0 -0.28 -0.66 -0.12 -0.68 c1.02 -0.14 1.66 -0.54 1.66 -1.8 l0 -8.92 c0 -1.32 -0.7 -1.7 -1.66 -1.96 c-0.16 -0.04 -0.06 -0.7 0.12 -0.68 c0.78 0.1 1.66 0.12 2.3 0.12 c1.48 0 2.72 -0.12 3.74 -0.12 c3.1 0 5.66 1.14 5.66 4.28 z M35.92 7 c-1.26 0 -1.6 0.44 -1.6 1.6 l0 5.06 c3.4 0.48 5.18 -0.34 5.18 -2.96 c0 -2.38 -1.52 -3.7 -3.58 -3.7 z M43.78 20.04 c-0.2 0.02 -0.28 -0.68 -0.12 -0.72 c1.16 -0.3 2.06 -0.48 2.06 -1.96 l0 -8.88 c0 -1.4 -0.82 -1.68 -1.68 -1.8 c-0.16 -0.02 -0.04 -0.68 0.1 -0.68 l5.52 0 c0.14 0 0.24 0.66 0.1 0.68 c-0.84 0.1 -1.64 0.4 -1.64 1.8 l0 8.88 c0 1.14 0.48 1.56 2.14 1.56 c3.02 0 4.22 -1.38 4.7 -2.14 c0.14 -0.22 0.68 -0.12 0.68 0.22 c0 1.02 -0.86 3.04 -2.12 3.04 c-1.12 -0.06 -2.22 -0.12 -3.9 -0.12 c-1.84 0 -4.02 -0.06 -5.84 0.12 z M64.56 20.32 c-4.16 0 -7.22 -3.08 -7.22 -7.24 c0 -4.04 2.88 -7.4 7.26 -7.4 c4.18 0 7.22 3.06 7.22 7.22 c0 4.06 -2.86 7.42 -7.26 7.42 z M65.33999999999999 18.96 c1.76 0 4.1 -1.16 4.1 -4.94 c0 -4.04 -2.74 -6.98 -5.62 -6.98 c-1.76 0 -4.08 1.16 -4.08 4.92 c0 4.08 2.74 7 5.6 7 z M88.41999999999999 19.5 c0.16 0 0.12 0.54 0 0.58 c-1.26 0.42 -3 0.36 -4.2 -1.18 l-3.08 -3.96 c-0.86 -1.12 -1.88 -1.28 -3.28 -1.3 l0 3.88 c0 1.4 0.96 1.64 2.24 1.8 c0.14 0.02 0.04 0.68 -0.12 0.68 l-6.06 0 c-0.16 0 -0.28 -0.66 -0.12 -0.68 c1.02 -0.14 1.66 -0.54 1.66 -1.8 l0 -8.92 c0 -1.32 -0.7 -1.7 -1.66 -1.96 c-0.16 -0.04 -0.06 -0.7 0.12 -0.68 c0.78 0.1 1.66 0.12 2.3 0.12 c1.48 0 2.86 -0.12 3.82 -0.12 c3.02 0 5.04 1.24 5.04 3.7 c0 2.32 -1.88 3.46 -3.56 3.56 l0 0.1 c0.8 0 1.38 0.34 2.26 1.44 l2.98 3.74 c0.62 0.78 1.22 1 1.66 1 z M78.43999999999998 12.719999999999999 c2.98 0 4.12 -0.52 4.12 -2.52 c0 -2.14 -1.36 -3.2 -3.14 -3.2 c-1.18 0 -1.56 0.48 -1.56 1.6 l0 4.12 l0.58 0 z M89.52 20.04 c-0.2 0.02 -0.28 -0.68 -0.12 -0.72 c1.16 -0.3 2.06 -0.48 2.06 -1.96 l0 -8.88 c0 -1.28 -0.82 -1.62 -1.68 -1.84 c-0.16 -0.04 -0.06 -0.7 0.1 -0.68 c1.46 0.16 3.98 0.12 5.2 0.12 c1.82 0 3.14 -0.08 4.78 -0.12 c0.48 0 0.48 0.32 0.38 0.78 l-0.48 1.9 c-0.06 0.28 -0.56 0.28 -0.64 0 c-0.3 -0.98 -0.9 -1.54 -3.4 -1.54 c-1.4 0 -1.86 0.36 -1.86 1.4 l0 3.26 c0 0.52 0.26 0.62 0.66 0.62 l0.44 0 c1.62 0 3.02 -0.16 3.84 -0.9 c0.2 -0.18 0.64 -0.14 0.46 0.26 l-1.14 2.52 c-0.16 0.36 -0.46 0.32 -0.68 0.02 c-0.46 -0.64 -1.48 -0.9 -2.64 -0.9 l-0.28 0 c-0.4 0 -0.66 0.1 -0.66 0.62 l0 3.36 c0 1.14 0.48 1.56 2.14 1.56 c3.02 0 4.22 -1.38 4.7 -2.14 c0.14 -0.22 0.68 -0.12 0.68 0.22 c0 1.02 -0.86 3.04 -2.12 3.04 c-1.12 -0.06 -2.22 -0.12 -3.9 -0.12 c-1.84 0 -4.02 -0.06 -5.84 0.12 z M109.86 20 c-0.18 0 -0.3 -0.64 -0.14 -0.66 c1.38 -0.18 2.3 -0.46 2.3 -1.54 l0 -9.86 c0 -0.5 -0.18 -0.66 -0.66 -0.66 l-0.54 0 c-1.9 0 -2.96 0.44 -3.36 1.3 c-0.18 0.4 -0.86 0.34 -0.78 0 c0.18 -0.72 0.34 -1.34 0.46 -2.4 c0.04 -0.38 0.26 -0.36 0.62 -0.32 c0.92 0.1 1.76 0.14 5.56 0.14 s5.14 -0.04 6.1 -0.14 c0.36 -0.04 0.7 -0.06 0.58 0.32 c-0.3 0.94 -0.5 1.68 -0.62 2.4 c-0.06 0.34 -0.6 0.36 -0.68 0 c-0.2 -0.84 -1.08 -1.3 -2.8 -1.3 l-0.62 0 c-0.48 0 -0.78 0.16 -0.78 0.66 l0 9.86 c0 1.08 0.92 1.36 2.3 1.54 c0.16 0.02 0.04 0.66 -0.14 0.66 l-6.8 0 z M136.54 19.32 c0.16 0.02 0.04 0.68 -0.12 0.68 l-5.48 0 c-0.16 0 -0.28 -0.66 -0.12 -0.68 c1.02 -0.14 1.66 -0.54 1.66 -1.8 l0 -3.44 c-0.1 -0.34 -0.52 -0.34 -0.9 -0.34 l-5.12 0 c-0.38 0 -0.8 0 -0.9 0.34 l0 3.44 c0 1.4 0.8 1.68 1.66 1.8 c0.16 0.02 0.04 0.68 -0.12 0.68 l-5.48 0 c-0.16 0 -0.28 -0.66 -0.12 -0.68 c1.02 -0.14 1.66 -0.54 1.66 -1.8 l0 -9.04 c0 -1.26 -0.64 -1.66 -1.66 -1.8 c-0.16 -0.02 -0.04 -0.68 0.12 -0.68 l5.48 0 c0.16 0 0.28 0.66 0.12 0.68 c-0.86 0.12 -1.66 0.4 -1.66 1.8 l0 3.66 c0.1 0.34 0.52 0.34 0.9 0.34 l5.12 0 c0.38 0 0.8 0 0.9 -0.34 l0 -3.66 c0 -1.26 -0.64 -1.66 -1.66 -1.8 c-0.16 -0.02 -0.04 -0.68 0.12 -0.68 l5.48 0 c0.16 0 0.28 0.66 0.12 0.68 c-0.86 0.12 -1.66 0.4 -1.66 1.8 l0 9.04 c0 1.4 0.8 1.68 1.66 1.8 z M138.12 20.04 c-0.2 0.02 -0.28 -0.68 -0.12 -0.72 c1.16 -0.3 2.06 -0.48 2.06 -1.96 l0 -8.88 c0 -1.28 -0.82 -1.62 -1.68 -1.84 c-0.16 -0.04 -0.06 -0.7 0.1 -0.68 c1.46 0.16 3.98 0.12 5.2 0.12 c1.82 0 3.14 -0.08 4.78 -0.12 c0.48 0 0.48 0.32 0.38 0.78 l-0.48 1.9 c-0.06 0.28 -0.56 0.28 -0.64 0 c-0.3 -0.98 -0.9 -1.54 -3.4 -1.54 c-1.4 0 -1.86 0.36 -1.86 1.4 l0 3.26 c0 0.52 0.26 0.62 0.66 0.62 l0.44 0 c1.62 0 3.02 -0.16 3.84 -0.9 c0.2 -0.18 0.64 -0.14 0.46 0.26 l-1.14 2.52 c-0.16 0.36 -0.46 0.32 -0.68 0.02 c-0.46 -0.64 -1.48 -0.9 -2.64 -0.9 l-0.28 0 c-0.4 0 -0.66 0.1 -0.66 0.62 l0 3.36 c0 1.14 0.48 1.56 2.14 1.56 c3.02 0 4.22 -1.38 4.7 -2.14 c0.14 -0.22 0.68 -0.12 0.68 0.22 c0 1.02 -0.86 3.04 -2.12 3.04 c-1.12 -0.06 -2.22 -0.12 -3.9 -0.12 c-1.84 0 -4.02 -0.06 -5.84 0.12 z M155.38000000000002 20.04 c-0.2 0.02 -0.28 -0.68 -0.12 -0.72 c1.16 -0.3 2.06 -0.48 2.06 -1.96 l0 -8.88 c0 -1.28 -0.82 -1.62 -1.68 -1.84 c-0.16 -0.04 -0.06 -0.7 0.1 -0.68 c1.46 0.16 3.98 0.12 5.2 0.12 c1.82 0 3.14 -0.08 4.78 -0.12 c0.48 0 0.48 0.32 0.38 0.78 l-0.48 1.9 c-0.06 0.28 -0.56 0.28 -0.64 0 c-0.3 -0.98 -0.9 -1.54 -3.4 -1.54 c-1.4 0 -1.86 0.36 -1.86 1.4 l0 3.26 c0 0.52 0.26 0.62 0.66 0.62 l0.44 0 c1.62 0 3.02 -0.16 3.84 -0.9 c0.2 -0.18 0.64 -0.14 0.46 0.26 l-1.14 2.52 c-0.16 0.36 -0.46 0.32 -0.68 0.02 c-0.46 -0.64 -1.48 -0.9 -2.64 -0.9 l-0.28 0 c-0.4 0 -0.66 0.1 -0.66 0.62 l0 3.36 c0 1.14 0.48 1.56 2.14 1.56 c3.02 0 4.22 -1.38 4.7 -2.14 c0.14 -0.22 0.68 -0.12 0.68 0.22 c0 1.02 -0.86 3.04 -2.12 3.04 c-1.12 -0.06 -2.22 -0.12 -3.9 -0.12 c-1.84 0 -4.02 -0.06 -5.84 0.12 z M183.54000000000002 19.5 c0.16 0 0.12 0.54 0 0.58 c-1.26 0.42 -3 0.36 -4.2 -1.18 l-3.08 -3.96 c-0.86 -1.12 -1.88 -1.28 -3.28 -1.3 l0 3.88 c0 1.4 0.96 1.64 2.24 1.8 c0.14 0.02 0.04 0.68 -0.12 0.68 l-6.06 0 c-0.16 0 -0.28 -0.66 -0.12 -0.68 c1.02 -0.14 1.66 -0.54 1.66 -1.8 l0 -8.92 c0 -1.32 -0.7 -1.7 -1.66 -1.96 c-0.16 -0.04 -0.06 -0.7 0.12 -0.68 c0.78 0.1 1.66 0.12 2.3 0.12 c1.48 0 2.86 -0.12 3.82 -0.12 c3.02 0 5.04 1.24 5.04 3.7 c0 2.32 -1.88 3.46 -3.56 3.56 l0 0.1 c0.8 0 1.38 0.34 2.26 1.44 l2.98 3.74 c0.62 0.78 1.22 1 1.66 1 z M173.56000000000003 12.719999999999999 c2.98 0 4.12 -0.52 4.12 -2.52 c0 -2.14 -1.36 -3.2 -3.14 -3.2 c-1.18 0 -1.56 0.48 -1.56 1.6 l0 4.12 l0.58 0 z M192.26000000000002 20.32 c-4.16 0 -7.22 -3.08 -7.22 -7.24 c0 -4.04 2.88 -7.4 7.26 -7.4 c4.18 0 7.22 3.06 7.22 7.22 c0 4.06 -2.86 7.42 -7.26 7.42 z M193.04000000000002 18.96 c1.76 0 4.1 -1.16 4.1 -4.94 c0 -4.04 -2.74 -6.98 -5.62 -6.98 c-1.76 0 -4.08 1.16 -4.08 4.92 c0 4.08 2.74 7 5.6 7 z M204.40000000000003 20 c-0.18 0 -0.3 -0.64 -0.14 -0.66 c1.38 -0.18 2.3 -0.46 2.3 -1.54 l0 -9.86 c0 -0.5 -0.18 -0.66 -0.66 -0.66 l-0.54 0 c-1.9 0 -2.96 0.44 -3.36 1.3 c-0.18 0.4 -0.86 0.34 -0.78 0 c0.18 -0.72 0.34 -1.34 0.46 -2.4 c0.04 -0.38 0.26 -0.36 0.62 -0.32 c0.92 0.1 1.76 0.14 5.56 0.14 s5.14 -0.04 6.1 -0.14 c0.36 -0.04 0.7 -0.06 0.58 0.32 c-0.3 0.94 -0.5 1.68 -0.62 2.4 c-0.06 0.34 -0.6 0.36 -0.68 0 c-0.2 -0.84 -1.08 -1.3 -2.8 -1.3 l-0.62 0 c-0.48 0 -0.78 0.16 -0.78 0.66 l0 9.86 c0 1.08 0.92 1.36 2.3 1.54 c0.16 0.02 0.04 0.66 -0.14 0.66 l-6.8 0 z M216.16000000000003 20 c-0.16 0 -0.28 -0.66 -0.12 -0.68 c1.02 -0.14 1.66 -0.54 1.66 -1.8 l0 -9.04 c0 -1.26 -0.64 -1.66 -1.66 -1.8 c-0.16 -0.02 -0.04 -0.68 0.12 -0.68 l5.48 0 c0.16 0 0.28 0.66 0.12 0.68 c-0.86 0.12 -1.66 0.4 -1.66 1.8 l0 9.04 c0 1.4 0.8 1.68 1.66 1.8 c0.16 0.02 0.04 0.68 -0.12 0.68 l-5.48 0 z M231.64000000000001 20.32 c-3.36 0 -7.9 -1.96 -7.9 -7.06 c0 -3.46 2.12 -7.58 7.72 -7.58 c2.32 0 4.32 0.72 4.08 1.42 l-0.26 0.78 c-0.72 2.14 -1.5 -0.6 -5.06 -0.6 c-2.86 0 -4.26 1.86 -4.26 4.74 c0 4.5 3.42 6.38 6.16 6.38 c0.36 0 2.18 -0.28 3.22 -0.94 c0.16 -0.1 0.58 0.36 0.46 0.54 c-0.86 1.26 -3.54 2.32 -4.16 2.32 z M237.82000000000002 20 c-0.16 0 -0.28 -0.66 -0.12 -0.68 c1.02 -0.14 1.66 -0.54 1.66 -1.8 l0 -9.04 c0 -1.26 -0.64 -1.66 -1.66 -1.8 c-0.16 -0.02 -0.04 -0.68 0.12 -0.68 l5.48 0 c0.16 0 0.28 0.66 0.12 0.68 c-0.86 0.12 -1.66 0.4 -1.66 1.8 l0 9.04 c0 1.4 0.8 1.68 1.66 1.8 c0.16 0.02 0.04 0.68 -0.12 0.68 l-5.48 0 z M249.42000000000002 20.32 c-1.64 0 -4.14 -0.72 -3.9 -1.6 l0.2 -0.74 c0.56 -2.1 1.22 0.98 4.52 0.98 c1.68 0 2.5 -0.82 2.5 -1.98 c0 -0.94 -0.6 -1.34 -2.02 -2.22 l-1.94 -1.22 c-2.16 -1.36 -3.04 -2.2 -3.04 -3.7 c0 -2.46 2.4 -4.16 4.88 -4.16 c1.52 0 3.46 0.66 3.24 1.34 l-0.24 0.76 c-0.62 1.94 -1.12 -0.74 -3.86 -0.74 c-1.42 0 -2.16 0.72 -2.16 1.78 c0 0.9 0.54 1.4 1.88 2.22 l2.1 1.3 c2.12 1.32 2.98 2.22 2.98 3.66 c0 2.5 -2.46 4.32 -5.14 4.32 z M274.18 19.32 c0.16 0.02 0.04 0.68 -0.1 0.68 l-5.22 0 c-0.14 0 -0.24 -0.66 -0.12 -0.68 c0.84 -0.14 1.46 -0.54 1.4 -1.8 l-0.38 -6.72 l-3.24 6.6 c-0.42 0.86 -0.74 1.74 -0.8 2.06 c-0.04 0.24 -0.46 0.36 -0.78 0.36 c-0.3 0 -0.5 -0.12 -0.62 -0.36 l-4.62 -8.76 l-0.3 6.82 c-0.06 1.4 0.76 1.72 1.4 1.8 c0.16 0.02 0.04 0.68 -0.1 0.68 l-4.14 0 c-0.16 0 -0.28 -0.66 -0.12 -0.68 c0.86 -0.1 1.58 -0.4 1.66 -1.8 l0.64 -11.48 c0.02 -0.34 0.78 -0.36 0.98 0 l5.8 10.84 l5.38 -10.84 c0.18 -0.36 0.98 -0.34 1 0 l0.64 11.48 c0.08 1.4 0.8 1.7 1.64 1.8 z M287.28 20.32 c-4.16 0 -7.22 -3.08 -7.22 -7.24 c0 -4.04 2.88 -7.4 7.26 -7.4 c4.18 0 7.22 3.06 7.22 7.22 c0 4.06 -2.86 7.42 -7.26 7.42 z M288.06 18.96 c1.76 0 4.1 -1.16 4.1 -4.94 c0 -4.04 -2.74 -6.98 -5.62 -6.98 c-1.76 0 -4.08 1.16 -4.08 4.92 c0 4.08 2.74 7 5.6 7 z M296.34 20.04 c-0.2 0.02 -0.28 -0.68 -0.12 -0.72 c1.16 -0.3 2.06 -0.48 2.06 -1.96 l0 -8.88 c0 -1.28 -0.82 -1.62 -1.68 -1.84 c-0.16 -0.04 -0.06 -0.7 0.1 -0.68 c1.46 0.16 3.98 0.12 5.2 0.12 c1.82 0 3.14 -0.08 4.78 -0.12 c0.48 0 0.48 0.32 0.38 0.78 l-0.48 1.9 c-0.06 0.28 -0.56 0.28 -0.64 0 c-0.3 -0.98 -0.9 -1.54 -3.4 -1.54 c-1.4 0 -1.86 0.36 -1.86 1.4 l0 3.46 c0 0.52 0.26 0.62 0.66 0.62 l0.44 0 c1.62 0 3.02 -0.16 3.84 -0.9 c0.2 -0.18 0.64 -0.14 0.46 0.26 l-1.14 2.52 c-0.16 0.36 -0.46 0.32 -0.68 0.02 c-0.46 -0.64 -1.48 -0.9 -2.64 -0.9 l-0.28 0 c-0.4 0 -0.66 0.1 -0.66 0.62 l0 3.16 c0 1.48 0.92 1.6 2.56 1.96 c0.18 0.04 0.08 0.74 -0.12 0.72 c-1.44 -0.1 -2.48 -0.12 -3.64 -0.12 s-2.2 0.02 -3.14 0.12 z M312.61999999999995 20.04 c-0.2 0.02 -0.28 -0.68 -0.12 -0.72 c1.16 -0.3 2.06 -0.48 2.06 -1.96 l0 -8.88 c0 -1.28 -0.82 -1.62 -1.68 -1.84 c-0.16 -0.04 -0.06 -0.7 0.1 -0.68 c0.82 0.1 1.66 0.12 2.5 0.12 c1.56 0 2.96 -0.12 3.98 -0.12 c4.84 0 7.46 2.88 7.46 6.74 c0 3.84 -2.62 7.34 -7.48 7.34 c-0.96 0 -2.2 -0.12 -3.68 -0.12 c-1.24 0 -2.22 0.02 -3.14 0.12 z M319.64 18.98 c3.26 0 4.88 -1.76 4.88 -5.14 c0 -3.82 -2.08 -6.82 -5.68 -6.82 c-1.42 0 -1.88 0.44 -1.88 1.46 l0 8.88 c0 1.08 0.74 1.62 2.68 1.62 z M328.91999999999996 20 c-0.16 0 -0.28 -0.66 -0.12 -0.68 c1.02 -0.14 1.66 -0.54 1.66 -1.8 l0 -9.04 c0 -1.26 -0.64 -1.66 -1.66 -1.8 c-0.16 -0.02 -0.04 -0.68 0.12 -0.68 l5.48 0 c0.16 0 0.28 0.66 0.12 0.68 c-0.86 0.12 -1.66 0.4 -1.66 1.8 l0 9.04 c0 1.4 0.8 1.68 1.66 1.8 c0.16 0.02 0.04 0.68 -0.12 0.68 l-5.48 0 z M340.52 20.32 c-1.64 0 -4.14 -0.72 -3.9 -1.6 l0.2 -0.74 c0.56 -2.1 1.22 0.98 4.52 0.98 c1.68 0 2.5 -0.82 2.5 -1.98 c0 -0.94 -0.6 -1.34 -2.02 -2.22 l-1.94 -1.22 c-2.16 -1.36 -3.04 -2.2 -3.04 -3.7 c0 -2.46 2.4 -4.16 4.88 -4.16 c1.52 0 3.46 0.66 3.24 1.34 l-0.24 0.76 c-0.62 1.94 -1.12 -0.74 -3.86 -0.74 c-1.42 0 -2.16 0.72 -2.16 1.78 c0 0.9 0.54 1.4 1.88 2.22 l2.1 1.3 c2.12 1.32 2.98 2.22 2.98 3.66 c0 2.5 -2.46 4.32 -5.14 4.32 z M355.65999999999997 20.32 c-3.36 0 -7.9 -1.96 -7.9 -7.06 c0 -3.46 2.12 -7.58 7.72 -7.58 c2.32 0 4.32 0.72 4.08 1.42 l-0.26 0.78 c-0.72 2.14 -1.5 -0.6 -5.06 -0.6 c-2.86 0 -4.26 1.86 -4.26 4.74 c0 4.5 3.42 6.38 6.16 6.38 c0.36 0 2.18 -0.28 3.22 -0.94 c0.16 -0.1 0.58 0.36 0.46 0.54 c-0.86 1.26 -3.54 2.32 -4.16 2.32 z M369.15999999999997 20.32 c-4.16 0 -7.22 -3.08 -7.22 -7.24 c0 -4.04 2.88 -7.4 7.26 -7.4 c4.18 0 7.22 3.06 7.22 7.22 c0 4.06 -2.86 7.42 -7.26 7.42 z M369.94 18.96 c1.76 0 4.1 -1.16 4.1 -4.94 c0 -4.04 -2.74 -6.98 -5.62 -6.98 c-1.76 0 -4.08 1.16 -4.08 4.92 c0 4.08 2.74 7 5.6 7 z M393.02 6 c0.22 0 0.3 0.64 0.04 0.68 c-0.8 0.12 -1.32 0.44 -2.04 2.12 l-3.38 7.86 c-0.7 1.62 -1.02 2.54 -1.02 3.34 c0 0.12 -1.38 0.44 -1.44 0.3 l-4.86 -11.48 c-0.72 -1.72 -1.26 -2.02 -2.04 -2.14 c-0.26 -0.04 -0.2 -0.68 0.06 -0.68 l5.26 0 c0.26 0 0.3 0.64 0.06 0.68 c-0.74 0.12 -1.48 0.44 -0.78 2.12 l3.38 8.12 l3.38 -8.12 c0.72 -1.72 -0.08 -1.98 -1 -2.12 c-0.26 -0.04 -0.2 -0.68 0.06 -0.68 l4.32 0 z M394.52 20.04 c-0.2 0.02 -0.28 -0.68 -0.12 -0.72 c1.16 -0.3 2.06 -0.48 2.06 -1.96 l0 -8.88 c0 -1.28 -0.82 -1.62 -1.68 -1.84 c-0.16 -0.04 -0.06 -0.7 0.1 -0.68 c1.46 0.16 3.98 0.12 5.2 0.12 c1.82 0 3.14 -0.08 4.78 -0.12 c0.48 0 0.48 0.32 0.38 0.78 l-0.48 1.9 c-0.06 0.28 -0.56 0.28 -0.64 0 c-0.3 -0.98 -0.9 -1.54 -3.4 -1.54 c-1.4 0 -1.86 0.36 -1.86 1.4 l0 3.26 c0 0.52 0.26 0.62 0.66 0.62 l0.44 0 c1.62 0 3.02 -0.16 3.84 -0.9 c0.2 -0.18 0.64 -0.14 0.46 0.26 l-1.14 2.52 c-0.16 0.36 -0.46 0.32 -0.68 0.02 c-0.46 -0.64 -1.48 -0.9 -2.64 -0.9 l-0.28 0 c-0.4 0 -0.66 0.1 -0.66 0.62 l0 3.36 c0 1.14 0.48 1.56 2.14 1.56 c3.02 0 4.22 -1.38 4.7 -2.14 c0.14 -0.22 0.68 -0.12 0.68 0.22 c0 1.02 -0.86 3.04 -2.12 3.04 c-1.12 -0.06 -2.22 -0.12 -3.9 -0.12 c-1.84 0 -4.02 -0.06 -5.84 0.12 z M422.68 19.5 c0.16 0 0.12 0.54 0 0.58 c-1.26 0.42 -3 0.36 -4.2 -1.18 l-3.08 -3.96 c-0.86 -1.12 -1.88 -1.28 -3.28 -1.3 l0 3.88 c0 1.4 0.96 1.64 2.24 1.8 c0.14 0.02 0.04 0.68 -0.12 0.68 l-6.06 0 c-0.16 0 -0.28 -0.66 -0.12 -0.68 c1.02 -0.14 1.66 -0.54 1.66 -1.8 l0 -8.92 c0 -1.32 -0.7 -1.7 -1.66 -1.96 c-0.16 -0.04 -0.06 -0.7 0.12 -0.68 c0.78 0.1 1.66 0.12 2.3 0.12 c1.48 0 2.86 -0.12 3.82 -0.12 c3.02 0 5.04 1.24 5.04 3.7 c0 2.32 -1.88 3.46 -3.56 3.56 l0 0.1 c0.8 0 1.38 0.34 2.26 1.44 l2.98 3.74 c0.62 0.78 1.22 1 1.66 1 z M412.7 12.719999999999999 c2.98 0 4.12 -0.52 4.12 -2.52 c0 -2.14 -1.36 -3.2 -3.14 -3.2 c-1.18 0 -1.56 0.48 -1.56 1.6 l0 4.12 l0.58 0 z M424.08 20 c-0.16 0 -0.28 -0.66 -0.12 -0.68 c1.02 -0.14 1.66 -0.54 1.66 -1.8 l0 -9.04 c0 -1.26 -0.64 -1.66 -1.66 -1.8 c-0.16 -0.02 -0.04 -0.68 0.12 -0.68 l5.48 0 c0.16 0 0.28 0.66 0.12 0.68 c-0.86 0.12 -1.66 0.4 -1.66 1.8 l0 9.04 c0 1.4 0.8 1.68 1.66 1.8 c0.16 0.02 0.04 0.68 -0.12 0.68 l-5.48 0 z M444.62 20.2 c-0.34 0 -0.52 -0.14 -0.74 -0.38 l-9.52 -9.96 l0 7.6 c0 1.36 0.8 1.58 1.94 1.86 c0.16 0.04 0.08 0.68 -0.12 0.68 l-4.74 0 c-0.16 0 -0.28 -0.62 -0.1 -0.68 c0.84 -0.28 1.64 -0.44 1.64 -1.86 l0 -7.76 c0 -1.42 -0.22 -2.1 -0.74 -2.8 c-0.18 -0.24 -0.36 -0.4 -0.36 -0.46 c0 -0.18 0.12 -0.44 0.4 -0.44 l1.48 0 c0.2 0 0.34 0.02 0.48 0.18 l9.32 9.86 l0 -7.52 c0 -1.42 -0.9 -1.58 -1.94 -1.84 c-0.16 -0.04 -0.08 -0.68 0.12 -0.68 l4.74 0 c0.16 0 0.26 0.64 0.1 0.68 c-0.88 0.26 -1.64 0.42 -1.64 1.84 l0 7.78 c0 1.32 0.04 2.78 0.24 3.52 c0.08 0.3 -0.24 0.38 -0.56 0.38 z M457.18 20.32 c-4.78 0 -8.62 -2.36 -8.62 -7.06 c0 -3.82 2.62 -7.58 8.18 -7.58 c2.44 0 4.34 0.72 4.1 1.4 l-0.3 0.84 c-0.7 1.98 -1.5 -0.62 -5.24 -0.62 c-3.1 0 -4.52 1.78 -4.52 4.8 c0 4.5 3.06 6.94 5.82 6.94 c1.44 0 1.98 -0.7 1.98 -1.84 l0 -0.36 c0 -1.52 -0.68 -2.02 -2.28 -2.26 c-0.26 -0.04 -0.02 -0.76 0.42 -0.76 l5.14 0 c0.56 0 0.36 0.7 0.14 0.76 c-0.74 0.2 -1.24 0.62 -1.24 1.9 l0 0.7 c0 0.48 0.04 0.9 0.42 1.52 c-1.2 0.66 -3.52 1.62 -4 1.62 z M470.8999999999999 20 c-0.18 0 -0.3 -0.64 -0.14 -0.66 c1.38 -0.18 2.3 -0.46 2.3 -1.54 l0 -9.86 c0 -0.5 -0.18 -0.66 -0.66 -0.66 l-0.54 0 c-1.9 0 -2.96 0.44 -3.36 1.3 c-0.18 0.4 -0.86 0.34 -0.78 0 c0.18 -0.72 0.34 -1.34 0.46 -2.4 c0.04 -0.38 0.26 -0.36 0.62 -0.32 c0.92 0.1 1.76 0.14 5.56 0.14 s5.14 -0.04 6.1 -0.14 c0.36 -0.04 0.7 -0.06 0.58 0.32 c-0.3 0.94 -0.5 1.68 -0.62 2.4 c-0.06 0.34 -0.6 0.36 -0.68 0 c-0.2 -0.84 -1.08 -1.3 -2.8 -1.3 l-0.62 0 c-0.48 0 -0.78 0.16 -0.78 0.66 l0 9.86 c0 1.08 0.92 1.36 2.3 1.54 c0.16 0.02 0.04 0.66 -0.14 0.66 l-6.8 0 z M497.58 19.32 c0.16 0.02 0.04 0.68 -0.12 0.68 l-5.48 0 c-0.16 0 -0.28 -0.66 -0.12 -0.68 c1.02 -0.14 1.66 -0.54 1.66 -1.8 l0 -3.44 c-0.1 -0.34 -0.52 -0.34 -0.9 -0.34 l-5.12 0 c-0.38 0 -0.8 0 -0.9 0.34 l0 3.44 c0 1.4 0.8 1.68 1.66 1.8 c0.16 0.02 0.04 0.68 -0.12 0.68 l-5.48 0 c-0.16 0 -0.28 -0.66 -0.12 -0.68 c1.02 -0.14 1.66 -0.54 1.66 -1.8 l0 -9.04 c0 -1.26 -0.64 -1.66 -1.66 -1.8 c-0.16 -0.02 -0.04 -0.68 0.12 -0.68 l5.48 0 c0.16 0 0.28 0.66 0.12 0.68 c-0.86 0.12 -1.66 0.4 -1.66 1.8 l0 3.66 c0.1 0.34 0.52 0.34 0.9 0.34 l5.12 0 c0.38 0 0.8 0 0.9 -0.34 l0 -3.66 c0 -1.26 -0.64 -1.66 -1.66 -1.8 c-0.16 -0.02 -0.04 -0.68 0.12 -0.68 l5.48 0 c0.16 0 0.28 0.66 0.12 0.68 c-0.86 0.12 -1.66 0.4 -1.66 1.8 l0 9.04 c0 1.4 0.8 1.68 1.66 1.8 z M499.15999999999997 20.04 c-0.2 0.02 -0.28 -0.68 -0.12 -0.72 c1.16 -0.3 2.06 -0.48 2.06 -1.96 l0 -8.88 c0 -1.28 -0.82 -1.62 -1.68 -1.84 c-0.16 -0.04 -0.06 -0.7 0.1 -0.68 c1.46 0.16 3.98 0.12 5.2 0.12 c1.82 0 3.14 -0.08 4.78 -0.12 c0.48 0 0.48 0.32 0.38 0.78 l-0.48 1.9 c-0.06 0.28 -0.56 0.28 -0.64 0 c-0.3 -0.98 -0.9 -1.54 -3.4 -1.54 c-1.4 0 -1.86 0.36 -1.86 1.4 l0 3.26 c0 0.52 0.26 0.62 0.66 0.62 l0.44 0 c1.62 0 3.02 -0.16 3.84 -0.9 c0.2 -0.18 0.64 -0.14 0.46 0.26 l-1.14 2.52 c-0.16 0.36 -0.46 0.32 -0.68 0.02 c-0.46 -0.64 -1.48 -0.9 -2.64 -0.9 l-0.28 0 c-0.4 0 -0.66 0.1 -0.66 0.62 l0 3.36 c0 1.14 0.48 1.56 2.14 1.56 c3.02 0 4.22 -1.38 4.7 -2.14 c0.14 -0.22 0.68 -0.12 0.68 0.22 c0 1.02 -0.86 3.04 -2.12 3.04 c-1.12 -0.06 -2.22 -0.12 -3.9 -0.12 c-1.84 0 -4.02 -0.06 -5.84 0.12 z M519.5 20 c-0.18 0 -0.3 -0.64 -0.14 -0.66 c1.38 -0.18 2.3 -0.46 2.3 -1.54 l0 -9.86 c0 -0.5 -0.18 -0.66 -0.66 -0.66 l-0.54 0 c-1.9 0 -2.96 0.44 -3.36 1.3 c-0.18 0.4 -0.86 0.34 -0.78 0 c0.18 -0.72 0.34 -1.34 0.46 -2.4 c0.04 -0.38 0.26 -0.36 0.62 -0.32 c0.92 0.1 1.76 0.14 5.56 0.14 s5.14 -0.04 6.1 -0.14 c0.36 -0.04 0.7 -0.06 0.58 0.32 c-0.3 0.94 -0.5 1.68 -0.62 2.4 c-0.06 0.34 -0.6 0.36 -0.68 0 c-0.2 -0.84 -1.08 -1.3 -2.8 -1.3 l-0.62 0 c-0.48 0 -0.78 0.16 -0.78 0.66 l0 9.86 c0 1.08 0.92 1.36 2.3 1.54 c0.16 0.02 0.04 0.66 -0.14 0.66 l-6.8 0 z M545.76 19.5 c0.16 0 0.12 0.54 0 0.58 c-1.26 0.42 -3 0.36 -4.2 -1.18 l-3.08 -3.96 c-0.86 -1.12 -1.88 -1.28 -3.28 -1.3 l0 3.88 c0 1.4 0.96 1.64 2.24 1.8 c0.14 0.02 0.04 0.68 -0.12 0.68 l-6.06 0 c-0.16 0 -0.28 -0.66 -0.12 -0.68 c1.02 -0.14 1.66 -0.54 1.66 -1.8 l0 -8.92 c0 -1.32 -0.7 -1.7 -1.66 -1.96 c-0.16 -0.04 -0.06 -0.7 0.12 -0.68 c0.78 0.1 1.66 0.12 2.3 0.12 c1.48 0 2.86 -0.12 3.82 -0.12 c3.02 0 5.04 1.24 5.04 3.7 c0 2.32 -1.88 3.46 -3.56 3.56 l0 0.1 c0.8 0 1.38 0.34 2.26 1.44 l2.98 3.74 c0.62 0.78 1.22 1 1.66 1 z M535.78 12.719999999999999 c2.98 0 4.12 -0.52 4.12 -2.52 c0 -2.14 -1.36 -3.2 -3.14 -3.2 c-1.18 0 -1.56 0.48 -1.56 1.6 l0 4.12 l0.58 0 z M554.54 20.32 c-2.82 0 -5.98 -1.5 -5.98 -5.56 l0 -6.28 c0 -1.26 -0.64 -1.68 -1.62 -1.8 c-0.16 -0.02 -0.04 -0.68 0.12 -0.68 l5.46 0 c0.16 0 0.28 0.66 0.12 0.68 c-0.8 0.1 -1.6 0.4 -1.6 1.8 l0 6.38 c0 2.8 1.62 4.1 3.74 4.1 c2.18 0 3.92 -1.3 3.92 -4.1 l0 -6.38 c0 -1.3 -0.74 -1.66 -1.72 -1.8 c-0.14 -0.02 -0.04 -0.68 0.12 -0.68 l4.5 0 c0.14 0 0.26 0.66 0.1 0.68 c-0.8 0.1 -1.6 0.4 -1.6 1.8 l0 6.26 c0 3.68 -2.38 5.58 -5.56 5.58 z M566.26 20 c-0.18 0 -0.3 -0.64 -0.14 -0.66 c1.38 -0.18 2.3 -0.46 2.3 -1.54 l0 -9.86 c0 -0.5 -0.18 -0.66 -0.66 -0.66 l-0.54 0 c-1.9 0 -2.96 0.44 -3.36 1.3 c-0.18 0.4 -0.86 0.34 -0.78 0 c0.18 -0.72 0.34 -1.34 0.46 -2.4 c0.04 -0.38 0.26 -0.36 0.62 -0.32 c0.92 0.1 1.76 0.14 5.56 0.14 s5.14 -0.04 6.1 -0.14 c0.36 -0.04 0.7 -0.06 0.58 0.32 c-0.3 0.94 -0.5 1.68 -0.62 2.4 c-0.06 0.34 -0.6 0.36 -0.68 0 c-0.2 -0.84 -1.08 -1.3 -2.8 -1.3 l-0.62 0 c-0.48 0 -0.78 0.16 -0.78 0.66 l0 9.86 c0 1.08 0.92 1.36 2.3 1.54 c0.16 0.02 0.04 0.66 -0.14 0.66 l-6.8 0 z M592.9399999999999 19.32 c0.16 0.02 0.04 0.68 -0.12 0.68 l-5.48 0 c-0.16 0 -0.28 -0.66 -0.12 -0.68 c1.02 -0.14 1.66 -0.54 1.66 -1.8 l0 -3.44 c-0.1 -0.34 -0.52 -0.34 -0.9 -0.34 l-5.12 0 c-0.38 0 -0.8 0 -0.9 0.34 l0 3.44 c0 1.4 0.8 1.68 1.66 1.8 c0.16 0.02 0.04 0.68 -0.12 0.68 l-5.48 0 c-0.16 0 -0.28 -0.66 -0.12 -0.68 c1.02 -0.14 1.66 -0.54 1.66 -1.8 l0 -9.04 c0 -1.26 -0.64 -1.66 -1.66 -1.8 c-0.16 -0.02 -0.04 -0.68 0.12 -0.68 l5.48 0 c0.16 0 0.28 0.66 0.12 0.68 c-0.86 0.12 -1.66 0.4 -1.66 1.8 l0 3.66 c0.1 0.34 0.52 0.34 0.9 0.34 l5.12 0 c0.38 0 0.8 0 0.9 -0.34 l0 -3.66 c0 -1.26 -0.64 -1.66 -1.66 -1.8 c-0.16 -0.02 -0.04 -0.68 0.12 -0.68 l5.48 0 c0.16 0 0.28 0.66 0.12 0.68 c-0.86 0.12 -1.66 0.4 -1.66 1.8 l0 9.04 c0 1.4 0.8 1.68 1.66 1.8 z M599.3599999999999 15.84 c-0.36 0.06 -0.48 -1.2 -0.12 -1.26 l5.64 -0.92 c0.36 -0.06 0.48 1.2 0.12 1.26 z M611.4199999999998 20 c-0.16 0 -0.28 -0.66 -0.12 -0.68 c1.02 -0.14 1.66 -0.54 1.66 -1.8 l0 -9.04 c0 -1.26 -0.64 -1.66 -1.66 -1.8 c-0.16 -0.02 -0.04 -0.68 0.12 -0.68 l5.48 0 c0.16 0 0.28 0.66 0.12 0.68 c-0.86 0.12 -1.66 0.4 -1.66 1.8 l0 9.04 c0 1.4 0.8 1.68 1.66 1.8 c0.16 0.02 0.04 0.68 -0.12 0.68 l-5.48 0 z M621.6799999999998 20 c-0.18 0 -0.3 -0.64 -0.14 -0.66 c1.38 -0.18 2.3 -0.46 2.3 -1.54 l0 -9.86 c0 -0.5 -0.18 -0.66 -0.66 -0.66 l-0.54 0 c-1.9 0 -2.96 0.44 -3.36 1.3 c-0.18 0.4 -0.86 0.34 -0.78 0 c0.18 -0.72 0.34 -1.34 0.46 -2.4 c0.04 -0.38 0.26 -0.36 0.62 -0.32 c0.92 0.1 1.76 0.14 5.56 0.14 s5.14 -0.04 6.1 -0.14 c0.36 -0.04 0.7 -0.06 0.58 0.32 c-0.3 0.94 -0.5 1.68 -0.62 2.4 c-0.06 0.34 -0.6 0.36 -0.68 0 c-0.2 -0.84 -1.08 -1.3 -2.8 -1.3 l-0.62 0 c-0.48 0 -0.78 0.16 -0.78 0.66 l0 9.86 c0 1.08 0.92 1.36 2.3 1.54 c0.16 0.02 0.04 0.66 -0.14 0.66 l-6.8 0 z M635.8799999999999 5.68 c-0.28 1.56 -0.58 3.32 -0.86 4.86 c-0.06 0.34 -1.3 0.54 -1.28 0.22 c0.06 -1.52 0.1 -3.24 0.14 -4.76 c0.02 -0.56 2.1 -0.88 2 -0.32 z M642.0999999999998 20.32 c-1.64 0 -4.14 -0.72 -3.9 -1.6 l0.2 -0.74 c0.56 -2.1 1.22 0.98 4.52 0.98 c1.68 0 2.5 -0.82 2.5 -1.98 c0 -0.94 -0.6 -1.34 -2.02 -2.22 l-1.94 -1.22 c-2.16 -1.36 -3.04 -2.2 -3.04 -3.7 c0 -2.46 2.4 -4.16 4.88 -4.16 c1.52 0 3.46 0.66 3.24 1.34 l-0.24 0.76 c-0.62 1.94 -1.12 -0.74 -3.86 -0.74 c-1.42 0 -2.16 0.72 -2.16 1.78 c0 0.9 0.54 1.4 1.88 2.22 l2.1 1.3 c2.12 1.32 2.98 2.22 2.98 3.66 c0 2.5 -2.46 4.32 -5.14 4.32 z M667.5799999999998 19.32 c0.28 0.04 0.2 0.68 -0.04 0.68 l-5.28 0 c-0.26 0 -0.28 -0.64 -0.06 -0.68 c0.74 -0.14 1.54 -0.4 0.8 -2.12 l-0.22 -0.5 c-0.2 -0.48 -0.54 -0.52 -1.14 -0.52 l-4.08 0 c-0.6 0 -0.94 0.04 -1.14 0.52 l-0.2 0.5 c-0.7 1.72 0.06 1.98 1.02 2.12 c0.26 0.04 0.2 0.68 -0.06 0.68 l-4.32 0 c-0.24 0 -0.3 -0.64 -0.06 -0.68 c0.82 -0.14 1.3 -0.42 2.04 -2.12 l3.38 -7.76 c0.78 -1.76 1.02 -2.58 1.02 -3.34 c0 -0.12 1.4 -0.44 1.46 -0.3 l4.88 11.38 c0.72 1.7 1.2 2.02 2 2.14 z M661.4999999999998 15.059999999999999 c0.28 0 0.58 -0.04 0.46 -0.32 l-2.34 -5.6 l-2.36 5.6 c-0.12 0.28 0.18 0.32 0.46 0.32 l3.78 0 z M673.1399999999998 24.3 c-0.3 0 -0.48 -0.68 -0.32 -0.7 c0.9 -0.1 1.86 -1.12 1.86 -3.48 l0 -11.7 c0 -1.4 -0.8 -1.68 -1.66 -1.8 c-0.16 -0.02 -0.04 -0.62 0.12 -0.62 l5.48 0 c0.16 0 0.28 0.6 0.12 0.62 c-0.86 0.12 -1.66 0.4 -1.66 1.8 l0 11.7 c0 2.02 -2.56 4.18 -3.94 4.18 z M687.9399999999998 20.32 c-4.16 0 -7.22 -3.08 -7.22 -7.24 c0 -4.04 2.88 -7.4 7.26 -7.4 c4.18 0 7.22 3.06 7.22 7.22 c0 4.06 -2.86 7.42 -7.26 7.42 z M688.7199999999998 18.96 c1.76 0 4.1 -1.16 4.1 -4.94 c0 -4.04 -2.74 -6.98 -5.62 -6.98 c-1.76 0 -4.08 1.16 -4.08 4.92 c0 4.08 2.74 7 5.6 7 z M704.6799999999997 20.32 c-2.82 0 -5.98 -1.5 -5.98 -5.56 l0 -6.28 c0 -1.26 -0.64 -1.68 -1.62 -1.8 c-0.16 -0.02 -0.04 -0.68 0.12 -0.68 l5.46 0 c0.16 0 0.28 0.66 0.12 0.68 c-0.8 0.1 -1.6 0.4 -1.6 1.8 l0 6.38 c0 2.8 1.62 4.1 3.74 4.1 c2.18 0 3.92 -1.3 3.92 -4.1 l0 -6.38 c0 -1.3 -0.74 -1.66 -1.72 -1.8 c-0.14 -0.02 -0.04 -0.68 0.12 -0.68 l4.5 0 c0.14 0 0.26 0.66 0.1 0.68 c-0.8 0.1 -1.6 0.4 -1.6 1.8 l0 6.26 c0 3.68 -2.38 5.58 -5.56 5.58 z M728.1199999999998 19.5 c0.16 0 0.12 0.54 0 0.58 c-1.26 0.42 -3 0.36 -4.2 -1.18 l-3.08 -3.96 c-0.86 -1.12 -1.88 -1.28 -3.28 -1.3 l0 3.88 c0 1.4 0.96 1.64 2.24 1.8 c0.14 0.02 0.04 0.68 -0.12 0.68 l-6.06 0 c-0.16 0 -0.28 -0.66 -0.12 -0.68 c1.02 -0.14 1.66 -0.54 1.66 -1.8 l0 -8.92 c0 -1.32 -0.7 -1.7 -1.66 -1.96 c-0.16 -0.04 -0.06 -0.7 0.12 -0.68 c0.78 0.1 1.66 0.12 2.3 0.12 c1.48 0 2.86 -0.12 3.82 -0.12 c3.02 0 5.04 1.24 5.04 3.7 c0 2.32 -1.88 3.46 -3.56 3.56 l0 0.1 c0.8 0 1.38 0.34 2.26 1.44 l2.98 3.74 c0.62 0.78 1.22 1 1.66 1 z M718.1399999999998 12.719999999999999 c2.98 0 4.12 -0.52 4.12 -2.52 c0 -2.14 -1.36 -3.2 -3.14 -3.2 c-1.18 0 -1.56 0.48 -1.56 1.6 l0 4.12 l0.58 0 z M742.5799999999997 20.2 c-0.34 0 -0.52 -0.14 -0.74 -0.38 l-9.52 -9.96 l0 7.6 c0 1.36 0.8 1.58 1.94 1.86 c0.16 0.04 0.08 0.68 -0.12 0.68 l-4.74 0 c-0.16 0 -0.28 -0.62 -0.1 -0.68 c0.84 -0.28 1.64 -0.44 1.64 -1.86 l0 -7.76 c0 -1.42 -0.22 -2.1 -0.74 -2.8 c-0.18 -0.24 -0.36 -0.4 -0.36 -0.46 c0 -0.18 0.12 -0.44 0.4 -0.44 l1.48 0 c0.2 0 0.34 0.02 0.48 0.18 l9.32 9.86 l0 -7.52 c0 -1.42 -0.9 -1.58 -1.94 -1.84 c-0.16 -0.04 -0.08 -0.68 0.12 -0.68 l4.74 0 c0.16 0 0.26 0.64 0.1 0.68 c-0.88 0.26 -1.64 0.42 -1.64 1.84 l0 7.78 c0 1.32 0.04 2.78 0.24 3.52 c0.08 0.3 -0.24 0.38 -0.56 0.38 z M746.1199999999998 20.04 c-0.2 0.02 -0.28 -0.68 -0.12 -0.72 c1.16 -0.3 2.06 -0.48 2.06 -1.96 l0 -8.88 c0 -1.28 -0.82 -1.62 -1.68 -1.84 c-0.16 -0.04 -0.06 -0.7 0.1 -0.68 c1.46 0.16 3.98 0.12 5.2 0.12 c1.82 0 3.14 -0.08 4.78 -0.12 c0.48 0 0.48 0.32 0.38 0.78 l-0.48 1.9 c-0.06 0.28 -0.56 0.28 -0.64 0 c-0.3 -0.98 -0.9 -1.54 -3.4 -1.54 c-1.4 0 -1.86 0.36 -1.86 1.4 l0 3.26 c0 0.52 0.26 0.62 0.66 0.62 l0.44 0 c1.62 0 3.02 -0.16 3.84 -0.9 c0.2 -0.18 0.64 -0.14 0.46 0.26 l-1.14 2.52 c-0.16 0.36 -0.46 0.32 -0.68 0.02 c-0.46 -0.64 -1.48 -0.9 -2.64 -0.9 l-0.28 0 c-0.4 0 -0.66 0.1 -0.66 0.62 l0 3.36 c0 1.14 0.48 1.56 2.14 1.56 c3.02 0 4.22 -1.38 4.7 -2.14 c0.14 -0.22 0.68 -0.12 0.68 0.22 c0 1.02 -0.86 3.04 -2.12 3.04 c-1.12 -0.06 -2.22 -0.12 -3.9 -0.12 c-1.84 0 -4.02 -0.06 -5.84 0.12 z M773.1599999999997 6 c0.24 0 0.3 0.64 0.06 0.68 c-0.78 0.12 -1.46 0.68 -2.38 2.12 l-3.2 5 l0 3.72 c0 1.4 0.8 1.64 2.04 1.8 c0.14 0.02 0.04 0.68 -0.12 0.68 l-6.26 0 c-0.16 0 -0.26 -0.66 -0.12 -0.68 c1.32 -0.18 2.06 -0.44 2.06 -1.8 l0 -3.64 l-3.36 -5.06 c-0.92 -1.38 -1.48 -2 -2.34 -2.14 c-0.26 -0.04 -0.2 -0.68 0.06 -0.68 l5.28 0 c0.26 0 0.3 0.64 0.06 0.68 c-0.88 0.14 -1.22 0.82 -0.36 2.12 l2.54 3.78 l2.44 -3.78 c0.84 -1.3 0.34 -1.96 -0.72 -2.12 c-0.28 -0.04 -0.2 -0.68 0.04 -0.68 l4.28 0 z M792.2599999999998 6 c0.24 0 0.3 0.64 0.06 0.68 c-0.78 0.12 -1.46 0.68 -2.38 2.12 l-3.2 5 l0 3.72 c0 1.4 0.8 1.64 2.04 1.8 c0.14 0.02 0.04 0.68 -0.12 0.68 l-6.26 0 c-0.16 0 -0.26 -0.66 -0.12 -0.68 c1.32 -0.18 2.06 -0.44 2.06 -1.8 l0 -3.64 l-3.36 -5.06 c-0.92 -1.38 -1.48 -2 -2.34 -2.14 c-0.26 -0.04 -0.2 -0.68 0.06 -0.68 l5.28 0 c0.26 0 0.3 0.64 0.06 0.68 c-0.88 0.14 -1.22 0.82 -0.36 2.12 l2.54 3.78 l2.44 -3.78 c0.84 -1.3 0.34 -1.96 -0.72 -2.12 c-0.28 -0.04 -0.2 -0.68 0.04 -0.68 l4.28 0 z M801.3999999999999 20.32 c-4.16 0 -7.22 -3.08 -7.22 -7.24 c0 -4.04 2.88 -7.4 7.26 -7.4 c4.18 0 7.22 3.06 7.22 7.22 c0 4.06 -2.86 7.42 -7.26 7.42 z M802.1799999999998 18.96 c1.76 0 4.1 -1.16 4.1 -4.94 c0 -4.04 -2.74 -6.98 -5.62 -6.98 c-1.76 0 -4.08 1.16 -4.08 4.92 c0 4.08 2.74 7 5.6 7 z M818.1399999999998 20.32 c-2.82 0 -5.98 -1.5 -5.98 -5.56 l0 -6.28 c0 -1.26 -0.64 -1.68 -1.62 -1.8 c-0.16 -0.02 -0.04 -0.68 0.12 -0.68 l5.46 0 c0.16 0 0.28 0.66 0.12 0.68 c-0.8 0.1 -1.6 0.4 -1.6 1.8 l0 6.38 c0 2.8 1.62 4.1 3.74 4.1 c2.18 0 3.92 -1.3 3.92 -4.1 l0 -6.38 c0 -1.3 -0.74 -1.66 -1.72 -1.8 c-0.14 -0.02 -0.04 -0.68 0.12 -0.68 l4.5 0 c0.14 0 0.26 0.66 0.1 0.68 c-0.8 0.1 -1.6 0.4 -1.6 1.8 l0 6.26 c0 3.68 -2.38 5.58 -5.56 5.58 z M852.2799999999997 6 c0.26 0 0.32 0.64 0.06 0.68 c-0.8 0.12 -1.42 0.42 -2.08 2.12 l-3.02 7.84 c-0.64 1.66 -0.96 2.58 -0.96 3.36 c0 0.12 -1.4 0.44 -1.46 0.3 l-3.14 -8 l-1.88 4.34 c-0.72 1.66 -0.96 2.56 -0.96 3.36 c0 0.12 -1.42 0.44 -1.48 0.3 l-4.56 -11.48 c-0.68 -1.72 -1.28 -2.02 -2.06 -2.14 c-0.26 -0.04 -0.2 -0.68 0.06 -0.68 l5.2 0 c0.26 0 0.3 0.64 0.06 0.68 c-0.92 0.16 -1.4 0.58 -0.8 2.12 l3.16 8.16 l2.04 -4.72 c0.46 -1.06 0.52 -1.7 -0.02 -3.08 c-0.74 -1.9 -1.26 -2.34 -1.78 -2.48 c-0.22 -0.06 -0.2 -0.68 0.06 -0.68 l3.98 0 c0.2 0 0.26 0.06 0.26 0.16 c0 0.26 -0.88 0.88 -0.2 2.64 l3.08 8 l3.04 -8 c0.66 -1.72 0 -1.94 -0.96 -2.12 c-0.22 -0.04 -0.18 -0.68 0.06 -0.68 l4.3 0 z M861.4199999999998 20.32 c-4.16 0 -7.22 -3.08 -7.22 -7.24 c0 -4.04 2.88 -7.4 7.26 -7.4 c4.18 0 7.22 3.06 7.22 7.22 c0 4.06 -2.86 7.42 -7.26 7.42 z M862.1999999999998 18.96 c1.76 0 4.1 -1.16 4.1 -4.94 c0 -4.04 -2.74 -6.98 -5.62 -6.98 c-1.76 0 -4.08 1.16 -4.08 4.92 c0 4.08 2.74 7 5.6 7 z M883.8399999999997 20.2 c-0.34 0 -0.52 -0.14 -0.74 -0.38 l-9.52 -9.96 l0 7.6 c0 1.36 0.8 1.58 1.94 1.86 c0.16 0.04 0.08 0.68 -0.12 0.68 l-4.74 0 c-0.16 0 -0.28 -0.62 -0.1 -0.68 c0.84 -0.28 1.64 -0.44 1.64 -1.86 l0 -7.76 c0 -1.42 -0.22 -2.1 -0.74 -2.8 c-0.18 -0.24 -0.36 -0.4 -0.36 -0.46 c0 -0.18 0.12 -0.44 0.4 -0.44 l1.48 0 c0.2 0 0.34 0.02 0.48 0.18 l9.32 9.86 l0 -7.52 c0 -1.42 -0.9 -1.58 -1.94 -1.84 c-0.16 -0.04 -0.08 -0.68 0.12 -0.68 l4.74 0 c0.16 0 0.26 0.64 0.1 0.68 c-0.88 0.26 -1.64 0.42 -1.64 1.84 l0 7.78 c0 1.32 0.04 2.78 0.24 3.52 c0.08 0.3 -0.24 0.38 -0.56 0.38 z M890.1199999999998 5.68 c-0.28 1.56 -0.58 3.32 -0.86 4.86 c-0.06 0.34 -1.3 0.54 -1.28 0.22 c0.06 -1.52 0.1 -3.24 0.14 -4.76 c0.02 -0.56 2.1 -0.88 2 -0.32 z M894.9999999999997 20 c-0.18 0 -0.3 -0.64 -0.14 -0.66 c1.38 -0.18 2.3 -0.46 2.3 -1.54 l0 -9.86 c0 -0.5 -0.18 -0.66 -0.66 -0.66 l-0.54 0 c-1.9 0 -2.96 0.44 -3.36 1.3 c-0.18 0.4 -0.86 0.34 -0.78 0 c0.18 -0.72 0.34 -1.34 0.46 -2.4 c0.04 -0.38 0.26 -0.36 0.62 -0.32 c0.92 0.1 1.76 0.14 5.56 0.14 s5.14 -0.04 6.1 -0.14 c0.36 -0.04 0.7 -0.06 0.58 0.32 c-0.3 0.94 -0.5 1.68 -0.62 2.4 c-0.06 0.34 -0.6 0.36 -0.68 0 c-0.2 -0.84 -1.08 -1.3 -2.8 -1.3 l-0.62 0 c-0.48 0 -0.78 0.16 -0.78 0.66 l0 9.86 c0 1.08 0.92 1.36 2.3 1.54 c0.16 0.02 0.04 0.66 -0.14 0.66 l-6.8 0 z M910.3599999999997 20.04 c-0.2 0.02 -0.28 -0.68 -0.12 -0.72 c1.16 -0.3 2.06 -0.48 2.06 -1.96 l0 -8.88 c0 -1.28 -0.82 -1.62 -1.68 -1.84 c-0.16 -0.04 -0.06 -0.7 0.1 -0.68 c1.46 0.16 3.98 0.12 5.2 0.12 c1.82 0 3.14 -0.08 4.78 -0.12 c0.48 0 0.48 0.32 0.38 0.78 l-0.48 1.9 c-0.06 0.28 -0.56 0.28 -0.64 0 c-0.3 -0.98 -0.9 -1.54 -3.4 -1.54 c-1.4 0 -1.86 0.36 -1.86 1.4 l0 3.46 c0 0.52 0.26 0.62 0.66 0.62 l0.44 0 c1.62 0 3.02 -0.16 3.84 -0.9 c0.2 -0.18 0.64 -0.14 0.46 0.26 l-1.14 2.52 c-0.16 0.36 -0.46 0.32 -0.68 0.02 c-0.46 -0.64 -1.48 -0.9 -2.64 -0.9 l-0.28 0 c-0.4 0 -0.66 0.1 -0.66 0.62 l0 3.16 c0 1.48 0.92 1.6 2.56 1.96 c0.18 0.04 0.08 0.74 -0.12 0.72 c-1.44 -0.1 -2.48 -0.12 -3.64 -0.12 s-2.2 0.02 -3.14 0.12 z M930.3599999999997 20.32 c-4.16 0 -7.22 -3.08 -7.22 -7.24 c0 -4.04 2.88 -7.4 7.26 -7.4 c4.18 0 7.22 3.06 7.22 7.22 c0 4.06 -2.86 7.42 -7.26 7.42 z M931.1399999999996 18.96 c1.76 0 4.1 -1.16 4.1 -4.94 c0 -4.04 -2.74 -6.98 -5.62 -6.98 c-1.76 0 -4.08 1.16 -4.08 4.92 c0 4.08 2.74 7 5.6 7 z M954.2199999999996 19.5 c0.16 0 0.12 0.54 0 0.58 c-1.26 0.42 -3 0.36 -4.2 -1.18 l-3.08 -3.96 c-0.86 -1.12 -1.88 -1.28 -3.28 -1.3 l0 3.88 c0 1.4 0.96 1.64 2.24 1.8 c0.14 0.02 0.04 0.68 -0.12 0.68 l-6.06 0 c-0.16 0 -0.28 -0.66 -0.12 -0.68 c1.02 -0.14 1.66 -0.54 1.66 -1.8 l0 -8.92 c0 -1.32 -0.7 -1.7 -1.66 -1.96 c-0.16 -0.04 -0.06 -0.7 0.12 -0.68 c0.78 0.1 1.66 0.12 2.3 0.12 c1.48 0 2.86 -0.12 3.82 -0.12 c3.02 0 5.04 1.24 5.04 3.7 c0 2.32 -1.88 3.46 -3.56 3.56 l0 0.1 c0.8 0 1.38 0.34 2.26 1.44 l2.98 3.74 c0.62 0.78 1.22 1 1.66 1 z M944.2399999999996 12.719999999999999 c2.98 0 4.12 -0.52 4.12 -2.52 c0 -2.14 -1.36 -3.2 -3.14 -3.2 c-1.18 0 -1.56 0.48 -1.56 1.6 l0 4.12 l0.58 0 z M964.3399999999996 20.32 c-4.78 0 -8.62 -2.36 -8.62 -7.06 c0 -3.82 2.62 -7.58 8.18 -7.58 c2.44 0 4.34 0.72 4.1 1.4 l-0.3 0.84 c-0.7 1.98 -1.5 -0.62 -5.24 -0.62 c-3.1 0 -4.52 1.78 -4.52 4.8 c0 4.5 3.06 6.94 5.82 6.94 c1.44 0 1.98 -0.7 1.98 -1.84 l0 -0.36 c0 -1.52 -0.68 -2.02 -2.28 -2.26 c-0.26 -0.04 -0.02 -0.76 0.42 -0.76 l5.14 0 c0.56 0 0.36 0.7 0.14 0.76 c-0.74 0.2 -1.24 0.62 -1.24 1.9 l0 0.7 c0 0.48 0.04 0.9 0.42 1.52 c-1.2 0.66 -3.52 1.62 -4 1.62 z M971.0799999999996 20.04 c-0.2 0.02 -0.28 -0.68 -0.12 -0.72 c1.16 -0.3 2.06 -0.48 2.06 -1.96 l0 -8.88 c0 -1.28 -0.82 -1.62 -1.68 -1.84 c-0.16 -0.04 -0.06 -0.7 0.1 -0.68 c1.46 0.16 3.98 0.12 5.2 0.12 c1.82 0 3.14 -0.08 4.78 -0.12 c0.48 0 0.48 0.32 0.38 0.78 l-0.48 1.9 c-0.06 0.28 -0.56 0.28 -0.64 0 c-0.3 -0.98 -0.9 -1.54 -3.4 -1.54 c-1.4 0 -1.86 0.36 -1.86 1.4 l0 3.26 c0 0.52 0.26 0.62 0.66 0.62 l0.44 0 c1.62 0 3.02 -0.16 3.84 -0.9 c0.2 -0.18 0.64 -0.14 0.46 0.26 l-1.14 2.52 c-0.16 0.36 -0.46 0.32 -0.68 0.02 c-0.46 -0.64 -1.48 -0.9 -2.64 -0.9 l-0.28 0 c-0.4 0 -0.66 0.1 -0.66 0.62 l0 3.36 c0 1.14 0.48 1.56 2.14 1.56 c3.02 0 4.22 -1.38 4.7 -2.14 c0.14 -0.22 0.68 -0.12 0.68 0.22 c0 1.02 -0.86 3.04 -2.12 3.04 c-1.12 -0.06 -2.22 -0.12 -3.9 -0.12 c-1.84 0 -4.02 -0.06 -5.84 0.12 z M987.5199999999995 20 c-0.18 0 -0.3 -0.64 -0.14 -0.66 c1.38 -0.18 2.3 -0.46 2.3 -1.54 l0 -9.86 c0 -0.5 -0.18 -0.66 -0.66 -0.66 l-0.54 0 c-1.9 0 -2.96 0.44 -3.36 1.3 c-0.18 0.4 -0.86 0.34 -0.78 0 c0.18 -0.72 0.34 -1.34 0.46 -2.4 c0.04 -0.38 0.26 -0.36 0.62 -0.32 c0.92 0.1 1.76 0.14 5.56 0.14 s5.14 -0.04 6.1 -0.14 c0.36 -0.04 0.7 -0.06 0.58 0.32 c-0.3 0.94 -0.5 1.68 -0.62 2.4 c-0.06 0.34 -0.6 0.36 -0.68 0 c-0.2 -0.84 -1.08 -1.3 -2.8 -1.3 l-0.62 0 c-0.48 0 -0.78 0.16 -0.78 0.66 l0 9.86 c0 1.08 0.92 1.36 2.3 1.54 c0.16 0.02 0.04 0.66 -0.14 0.66 l-6.8 0 z M1000.8999999999995 20.2 c-0.44 0 -1.52 -0.94 -1.52 -1.52 s1.08 -1.52 1.52 -1.52 s1.52 0.94 1.52 1.52 s-1.08 1.52 -1.52 1.52 z"></path>
    </g>
    </g>
</svg>
